<?xml version="1.0" standalone="no"?>
<!DOCTYPE svg PUBLIC "-//W3C//DTD SVG 20010904//EN"
 "http://www.w3.org/TR/2001/REC-SVG-20010904/DTD/svg10.dtd">
<svg version="1.0" xmlns="http://www.w3.org/2000/svg"
 width="870.000000pt" height="182.000000pt" viewBox="0 0 870.000000 182.000000"
 preserveAspectRatio="xMidYMid meet">
<metadata>
Created by potrace 1.16, written by Peter Selinger 2001-2019
</metadata>
<g transform="translate(0.000000,182.000000) scale(0.100000,-0.100000)"
fill="#000000" stroke="none">
<path d="M72 1688 c-17 -17 -17 -809 0 -826 9 -9 105 -12 369 -12 l358 0 68
89 68 89 3 -76 c2 -42 8 -82 14 -89 14 -18 298 -19 316 -1 17 17 17 809 0 826
-17 17 -299 17 -316 0 -9 -9 -12 -83 -12 -270 l0 -258 -270 0 -270 0 0 258 c0
187 -3 261 -12 270 -8 8 -58 12 -158 12 -100 0 -150 -4 -158 -12z m296 -290
l2 -268 278 -2 277 -3 3 -22 c2 -16 -20 -54 -73 -123 l-77 -100 -342 2 -341 3
-3 380 c-1 209 0 386 3 393 3 9 37 12 137 10 l133 -3 3 -267z m887 -123 l0
-390 -140 0 -140 0 -3 380 c-1 209 0 386 3 393 3 10 37 12 142 10 l138 -3 0
-390z"/>
<path d="M120 1540 l0 -100 110 0 110 0 0 100 0 100 -110 0 -110 0 0 -100z"/>
<path d="M1010 1540 l0 -100 105 0 105 0 0 100 0 100 -105 0 -105 0 0 -100z"/>
<path d="M1371 1596 c-70 -89 -81 -110 -81 -143 0 -22 5 -44 12 -51 9 -9 102
-12 353 -13 187 0 349 -4 360 -9 19 -7 18 -9 -8 -19 -19 -7 -141 -11 -361 -11
-245 0 -335 -3 -344 -12 -17 -17 -17 -459 0 -476 17 -17 299 -17 316 0 7 7 12
44 12 95 l0 83 106 0 106 0 108 -95 108 -95 199 0 c141 0 202 3 211 12 7 7 12
30 12 53 0 40 -3 44 -95 119 -52 43 -95 81 -95 84 0 3 20 27 45 53 25 26 45
54 45 61 0 28 20 -18 20 -47 1 -74 90 -202 184 -262 95 -61 127 -66 427 -71
l276 -4 41 49 42 48 0 -35 c0 -20 5 -41 12 -48 17 -17 1269 -17 1286 0 7 7 12
30 12 53 0 36 -23 72 -229 369 -127 180 -240 339 -252 352 -44 47 -102 67
-184 62 -115 -5 -127 -17 -360 -343 -179 -249 -200 -276 -203 -250 -7 56 -3
55 -296 55 -291 0 -330 5 -376 48 -39 36 -45 69 -21 109 39 62 62 68 306 71
186 3 223 6 238 20 10 9 47 55 82 103 54 72 65 93 65 126 0 21 -5 44 -12 51
-9 9 -95 12 -327 12 -337 0 -402 -7 -497 -51 -68 -32 -177 -142 -195 -198
l-15 -44 -13 56 c-15 69 -79 146 -154 183 -90 46 -157 54 -484 54 l-302 0 -80
-104z m730 60 c90 -19 158 -56 206 -110 47 -53 63 -101 63 -187 -1 -93 -40
-167 -119 -221 l-24 -17 34 -28 c169 -142 184 -156 184 -182 l0 -26 -183 -3
-183 -2 -109 95 -109 95 -130 0 -130 0 -3 -92 -3 -93 -135 0 -135 0 0 215 0
215 350 5 c314 4 354 7 378 23 15 9 27 22 27 27 0 5 -12 18 -27 27 -24 16 -64
19 -378 23 l-350 5 -3 22 c-2 16 20 54 73 123 l77 100 282 0 c203 0 299 -4
347 -14z m1317 -16 c2 -18 -18 -51 -70 -120 l-73 -95 -220 -5 c-246 -6 -277
-13 -322 -80 -43 -62 -18 -140 57 -184 33 -20 55 -21 330 -26 l295 -5 3 -25
c2 -18 -18 -51 -71 -120 l-72 -95 -220 -3 c-248 -3 -321 5 -411 49 -82 39
-175 137 -200 211 -25 72 -25 205 -1 276 34 96 138 189 252 225 77 24 80 24
410 23 l310 -1 3 -25z m697 11 c22 -10 50 -29 61 -42 12 -13 122 -168 245
-344 169 -242 224 -327 224 -350 l0 -30 -443 -3 c-392 -2 -443 0 -449 13 -5
14 -7 14 -23 0 -14 -13 -43 -15 -171 -13 l-154 3 -3 25 c-2 20 51 101 224 345
125 176 238 333 253 349 57 63 158 83 236 47z"/>
<path d="M1427 1548 l-69 -93 478 -7 c263 -4 481 -5 484 -2 10 11 -39 80 -79
111 -23 18 -72 42 -109 55 -61 20 -91 22 -352 25 l-285 4 -68 -93z"/>
<path d="M2780 1629 c-83 -14 -173 -61 -230 -119 -28 -28 -50 -56 -50 -62 0
-8 67 -9 233 -5 127 4 295 7 372 7 l140 0 73 95 73 95 -278 -1 c-153 -1 -303
-5 -333 -10z"/>
<path d="M3985 1630 c-40 -13 -82 -53 -133 -128 l-43 -62 216 0 c118 0 215 2
215 5 0 18 -96 144 -122 162 -40 26 -92 35 -133 23z"/>
<path d="M3970 1222 c-30 -42 -56 -80 -58 -84 -2 -4 48 -8 112 -8 64 0 116 2
116 5 0 5 -92 137 -109 157 -3 4 -31 -28 -61 -70z"/>
<path d="M4262 1688 c-7 -7 -12 -30 -12 -52 0 -39 11 -52 220 -284 l220 -243
0 -117 c0 -79 4 -122 12 -130 17 -17 299 -17 316 0 8 8 12 53 12 133 l1 120
204 233 205 233 0 -353 c0 -262 3 -357 12 -366 17 -17 299 -17 316 0 8 8 12
53 12 135 l0 123 155 0 155 0 0 -123 c0 -82 4 -127 12 -135 17 -17 299 -17
316 0 17 17 17 809 0 826 -8 8 -58 12 -158 12 -100 0 -150 -4 -158 -12 -8 -8
-12 -53 -12 -135 l0 -123 -155 0 -155 0 0 123 c0 82 -4 127 -12 135 -16 16
-299 17 -315 1 -8 -8 -13 -8 -17 0 -5 7 -68 11 -186 11 l-178 0 -107 -126
c-59 -69 -108 -124 -109 -122 -1 2 -53 58 -115 126 l-113 122 -177 0 c-124 0
-181 -4 -189 -12z m473 -153 c66 -74 123 -134 126 -132 4 1 57 62 119 135
l113 132 161 -2 161 -3 3 -26 c3 -22 -32 -67 -205 -264 l-208 -237 -5 -127 -5
-126 -135 0 -135 0 -5 125 -5 125 -217 240 c-204 225 -234 266 -211 288 3 4
79 7 167 7 l161 -1 120 -134z m1013 -2 l3 -133 184 0 184 0 3 133 3 132 135 0
135 0 0 -390 0 -390 -135 0 -135 0 -3 133 -3 132 -184 0 -184 0 -3 -132 -3
-133 -135 0 -135 0 -3 380 c-1 209 0 386 3 393 3 9 37 12 137 10 l133 -3 3
-132z"/>
<path d="M4400 1540 l92 -100 136 0 c128 0 134 1 120 18 -8 9 -47 54 -88 100
l-73 82 -140 0 -139 0 92 -100z"/>
<path d="M5037 1546 c-42 -52 -77 -97 -77 -100 0 -3 58 -6 128 -6 l128 0 70
78 c38 42 78 87 88 100 l19 22 -140 0 -139 0 -77 -94z"/>
<path d="M5500 1540 l0 -100 110 0 110 0 0 100 0 100 -110 0 -110 0 0 -100z"/>
<path d="M6150 1586 c0 -29 3 -74 6 -100 l7 -46 103 0 104 0 0 100 0 100 -110
0 -110 0 0 -54z"/>
<path d="M6471 1686 c-9 -11 -12 -88 -9 -293 3 -268 4 -280 27 -331 30 -67
113 -144 184 -170 88 -33 204 -45 376 -39 221 8 315 39 396 129 73 81 78 105
83 416 3 205 1 276 -8 287 -16 20 -309 22 -328 3 -9 -9 -12 -74 -12 -230 0
-140 -4 -226 -11 -242 -18 -38 -62 -51 -179 -51 -122 0 -161 15 -179 66 -7 19
-11 113 -11 238 0 148 -3 210 -12 219 -19 19 -302 17 -317 -2z m299 -246 c3
-156 9 -232 18 -247 26 -46 67 -57 202 -58 134 0 181 11 203 49 8 14 14 98 17
251 l5 230 140 0 140 0 3 -225 c3 -245 -5 -320 -43 -386 -71 -122 -209 -174
-458 -174 -210 0 -320 29 -405 105 -27 25 -60 66 -73 92 -23 46 -24 59 -27
306 -2 142 -1 265 2 273 5 12 30 14 138 12 l133 -3 5 -225z"/>
<path d="M6520 1540 l0 -100 110 0 110 0 0 100 0 100 -110 0 -110 0 0 -100z"/>
<path d="M7250 1540 l0 -100 105 0 105 0 0 100 0 100 -105 0 -105 0 0 -100z"/>
<path d="M7622 1598 l-82 -103 0 -311 c0 -258 2 -314 14 -323 11 -9 113 -11
403 -9 333 3 395 6 440 21 74 25 143 75 181 131 30 45 32 54 32 130 -1 44 -7
94 -14 111 -10 24 -10 34 2 58 10 20 13 54 10 117 -3 80 -6 92 -34 132 -39 53
-109 102 -177 125 -43 14 -105 17 -372 21 l-321 3 -82 -103z m770 44 c78 -31
142 -83 167 -135 28 -57 28 -148 2 -201 -19 -37 -19 -38 0 -69 28 -47 26 -149
-4 -202 -28 -49 -89 -96 -164 -127 -57 -22 -64 -23 -438 -23 l-380 0 0 255 0
255 333 3 c207 1 332 6 332 12 0 6 -125 11 -332 12 l-333 3 -3 25 c-2 18 18
51 75 123 l77 98 305 -3 c289 -3 309 -5 363 -26z"/>
<path d="M7676 1549 c-37 -49 -66 -92 -65 -93 11 -9 929 -14 929 -5 0 51 -90
132 -180 161 -59 20 -90 22 -340 25 l-275 3 -69 -91z"/>
</g>
</svg>
